<?xml version="1.0" encoding="utf-8"?>
<!-- Generator: Adobe Illustrator 16.0.0, SVG Export Plug-In . SVG Version: 6.00 Build 0)  -->
<!DOCTYPE svg PUBLIC "-//W3C//DTD SVG 1.1//EN" "http://www.w3.org/Graphics/SVG/1.1/DTD/svg11.dtd">
<svg version="1.1" xmlns="http://www.w3.org/2000/svg" xmlns:xlink="http://www.w3.org/1999/xlink" x="0px" y="0px" width="164px"
	 height="50px" viewBox="0 0 164 50" enable-background="new 0 0 164 50" xml:space="preserve">
<g id="Logo">
	<polygon fill="#FFFFFF" points="31.322,48.174 29.957,49.541 15.58,35.163 17.017,33.868 	"/>
	<polygon fill="#FF0700" points="29.526,43.213 18.735,32.425 17.369,33.79 28.159,44.582 	"/>
	<polygon fill="#FFFFFF" points="27.655,38.184 20.215,30.741 18.903,32.161 26.29,39.549 	"/>
	<path fill="#FFFFFF" d="M0,25.541c0-6.11,4.972-11.082,11.082-11.082c6.111,0,11.081,4.972,11.081,11.082
		c0,6.113-4.97,11.082-11.081,11.082C4.972,36.623,0,31.654,0,25.541z M1.792,25.541c0,5.125,4.168,9.291,9.291,9.291
		c5.123,0,9.29-4.166,9.29-9.291c0-5.122-4.167-9.289-9.29-9.289C5.96,16.252,1.792,20.419,1.792,25.541z"/>
</g>
<g id="Text">
	<g>
		<path fill="#FF0700" d="M38.122,31.164h-4.778V20.249h4.247c0.739,0,1.376,0.089,1.913,0.266c0.536,0.178,0.939,0.417,1.21,0.719
			c0.489,0.562,0.734,1.197,0.734,1.904c0,0.854-0.276,1.489-0.828,1.905c-0.188,0.146-0.318,0.237-0.391,0.273
			s-0.203,0.097-0.39,0.18c0.676,0.146,1.215,0.45,1.616,0.913c0.4,0.464,0.601,1.038,0.601,1.726c0,0.76-0.26,1.432-0.781,2.015
			C40.672,30.826,39.621,31.164,38.122,31.164z M35.78,24.668h1.155c0.677,0,1.179-0.072,1.507-0.218
			c0.328-0.146,0.492-0.461,0.492-0.945c0-0.483-0.151-0.804-0.453-0.96c-0.302-0.156-0.812-0.234-1.53-0.234H35.78V24.668z
			 M35.78,29.103h1.67c0.697,0,1.221-0.085,1.569-0.257s0.523-0.51,0.523-1.016c0-0.505-0.185-0.838-0.554-0.999
			s-0.96-0.242-1.772-0.242H35.78V29.103z"/>
		<path fill="#FF0700" d="M51.753,31.164l-1.015-2.357h-4.575l-1.015,2.357h-2.592l4.715-10.915h2.358l4.715,10.915H51.753z
			 M48.458,23.497l-1.374,3.17h2.732L48.458,23.497z"/>
		<path fill="#FF0700" d="M59.435,22.357v8.807h-2.436v-8.807h-3.092v-2.108h8.619v2.108H59.435z"/>
		<path fill="#FF0700" d="M68.929,22.357v8.807h-2.436v-8.807h-3.092v-2.108h8.619v2.108H68.929z"/>
		<path fill="#FF0700" d="M73.8,31.164V20.249h2.436v8.745h4.653v2.17H73.8z"/>
		<path fill="#FF0700" d="M90.538,20.249v2.171h-5.434v2.248h4.887v2.077h-4.887v2.265h5.605v2.154h-8.042V20.249H90.538z"/>
		<path fill="#FFFFFF" d="M102.654,24.294l-2.951,5.965h-1.452l-2.935-5.965v6.87H92.88V20.249h3.294l2.811,5.996l2.827-5.996h3.278
			v10.915h-2.436V24.294z"/>
		<path fill="#FFFFFF" d="M115.645,20.249v2.171h-5.434v2.248h4.888v2.077h-4.888v2.265h5.605v2.154h-8.041V20.249H115.645z"/>
		<path fill="#FFFFFF" d="M122.609,22.357v8.807h-2.437v-8.807h-3.091v-2.108h8.619v2.108H122.609z"/>
		<path fill="#FFFFFF" d="M136.334,23.872c0,1.749-0.692,2.878-2.077,3.389l2.764,3.903h-2.998l-2.42-3.482h-1.687v3.482h-2.436
			V20.249h4.138c1.696,0,2.907,0.287,3.631,0.859C135.972,21.681,136.334,22.603,136.334,23.872z M133.398,25.168
			c0.302-0.271,0.453-0.7,0.453-1.288s-0.156-0.991-0.469-1.21s-0.859-0.328-1.64-0.328h-1.827v3.232h1.78
			C132.529,25.574,133.097,25.438,133.398,25.168z"/>
		<path fill="#FFFFFF" d="M138.832,20.249h2.436v10.915h-2.436V20.249z"/>
		<path fill="#FFFFFF" d="M148.965,29.01c1.197,0,2.176-0.474,2.936-1.421l1.562,1.607c-1.238,1.396-2.698,2.093-4.38,2.093
			c-1.681,0-3.065-0.531-4.153-1.593s-1.631-2.402-1.631-4.021c0-1.619,0.554-2.97,1.662-4.052c1.109-1.083,2.465-1.624,4.067-1.624
			c1.791,0,3.29,0.682,4.497,2.045l-1.515,1.718c-0.771-0.958-1.728-1.437-2.873-1.437c-0.916,0-1.699,0.3-2.35,0.897
			c-0.65,0.599-0.976,1.405-0.976,2.421c0,1.015,0.307,1.829,0.921,2.443S148.091,29.01,148.965,29.01z"/>
		<path fill="#FFFFFF" d="M157.936,22.428c-0.234,0.192-0.352,0.447-0.352,0.765c0,0.318,0.144,0.57,0.43,0.758
			s0.947,0.408,1.983,0.663c1.035,0.256,1.84,0.638,2.412,1.148c0.572,0.51,0.858,1.254,0.858,2.232s-0.366,1.772-1.101,2.382
			c-0.733,0.608-1.699,0.913-2.896,0.913c-1.728,0-3.284-0.641-4.668-1.921l1.452-1.779c1.176,1.03,2.264,1.545,3.263,1.545
			c0.447,0,0.799-0.096,1.055-0.288c0.255-0.192,0.382-0.453,0.382-0.781s-0.135-0.588-0.405-0.78
			c-0.271-0.193-0.808-0.388-1.608-0.586c-1.271-0.302-2.199-0.695-2.787-1.179c-0.589-0.484-0.883-1.244-0.883-2.28
			c0-1.035,0.372-1.834,1.116-2.396S157.86,20,158.975,20c0.728,0,1.457,0.125,2.186,0.374c0.729,0.25,1.363,0.604,1.905,1.063
			l-1.234,1.779c-0.947-0.718-1.926-1.077-2.935-1.077C158.49,22.139,158.17,22.235,157.936,22.428z"/>
	</g>
</g>
</svg>
