<svg xmlns="http://www.w3.org/2000/svg" xmlns:xlink="http://www.w3.org/1999/xlink" id="svg1" version="1.1" viewBox="0 0 512 512"><defs id="defs1"><linearGradient id="linearGradient1"><stop id="stop1" offset="0" style="stop-color:#00d31e;stop-opacity:1"/><stop id="stop2" offset="1" style="stop-color:#fff;stop-opacity:1"/></linearGradient><linearGradient xlink:href="#linearGradient1" id="linearGradient2" x1="10.6" x2="264.6" y1="411.1" y2="179.9" gradientUnits="userSpaceOnUse"/><filter id="filter4734" width="1" height="1" x="0" y="0" style="color-interpolation-filters:sRGB"><feGaussianBlur id="feGaussianBlur4734" stdDeviation=".2"/></filter></defs><g id="layer1"><circle id="path5" cx="256" cy="256" r="256" style="font-variation-settings:normal;opacity:1;fill:#143a1c;fill-opacity:1;stroke:none;stroke-width:17.261;stroke-linecap:butt;stroke-linejoin:miter;stroke-miterlimit:4;stroke-dasharray:none;stroke-dashoffset:0;stroke-opacity:1"/><path id="path2-5-3-1" d="m268 39-8 20-12 27a576 576 0 0 0-28 75 105 105 0 0 0 5 63c4 11 11 22 19 32a229 229 0 0 1 15 21 115 115 0 0 1 16 40 127 127 0 0 1 0 29l-6 54a306 306 0 0 0-1 59l7-22 14-31c9-18 18-34 24-52a409 409 0 0 0 11-34c2-11 3-22 2-35a109 109 0 0 0-28-66l-6-6a268 268 0 0 1-27-33 82 82 0 0 1-12-41v-10l6-39 6-30 3-21zM165 75l-8 19-12 28a576 576 0 0 0-28 75c-2 9-3 19-3 30a116 116 0 0 0 27 65 228 228 0 0 1 15 21 115 115 0 0 1 15 40 127 127 0 0 1 1 28l-6 55a306 306 0 0 0-1 59 355 355 0 0 1 21-53l24-52a410 410 0 0 0 10-34 109 109 0 0 0-25-101l-6-7a268 268 0 0 1-28-33 83 83 0 0 1-11-40v-10l6-39 6-30 3-21zM62 111l-8 19-12 28a576 576 0 0 0-29 75l-2 30a116 116 0 0 0 27 65v-1a229 229 0 0 1 15 21 115 115 0 0 1 15 40 127 127 0 0 1 1 29l-6 54a306 306 0 0 0-1 60l7-23 14-31 24-51a409 409 0 0 0 10-35 109 109 0 0 0-25-101l-6-6a268 268 0 0 1-28-33 82 82 0 0 1-11-41v-9l6-40 6-30 3-20z" style="fill:url(#linearGradient2);fill-rule:nonzero;stroke:none;stroke-width:2.25028787;stroke-dasharray:none;font-variation-settings:normal;opacity:1;fill-opacity:1;stroke-linecap:butt;stroke-linejoin:miter;stroke-miterlimit:4;stroke-dashoffset:0;stroke-opacity:1;filter:url(#filter4734);stop-color:#000;stop-opacity:1" transform="matrix(.8 0 0 .98 120 -24)"/></g></svg>